<svg xmlns="http://www.w3.org/2000/svg" style="display:none" aria-hidden="true">
  <!-- Icons from Lucide — https://lucide.dev — ISC license -->
  <!-- One <symbol> per icon, viewBox 0 0 24 24, no inline stroke/fill.
       Stroke-width / linecap / linejoin / fill come from the global
       `.icon` class in style.css and are inherited via <use>. -->

  <symbol id="i-chevron-left" viewBox="0 0 24 24">
    <polyline points="15 18 9 12 15 6"/>
  </symbol>

  <symbol id="i-chevron-right" viewBox="0 0 24 24">
    <polyline points="9 18 15 12 9 6"/>
  </symbol>

  <symbol id="i-log-out" viewBox="0 0 24 24">
    <path d="M9 21H5a2 2 0 0 1-2-2V5a2 2 0 0 1 2-2h4"/>
    <polyline points="16 17 21 12 16 7"/>
    <line x1="21" x2="9" y1="12" y2="12"/>
  </symbol>

  <symbol id="i-film" viewBox="0 0 24 24">
    <rect width="18" height="18" x="3" y="3" rx="2"/>
    <path d="M7 3v18"/>
    <path d="M3 7.5h4"/>
    <path d="M3 12h18"/>
    <path d="M3 16.5h4"/>
    <path d="M17 3v18"/>
    <path d="M17 7.5h4"/>
    <path d="M17 16.5h4"/>
  </symbol>

  <symbol id="i-percent" viewBox="0 0 24 24">
    <line x1="19" x2="5" y1="5" y2="19"/>
    <circle cx="6.5" cy="6.5" r="2.5"/>
    <circle cx="17.5" cy="17.5" r="2.5"/>
  </symbol>

  <symbol id="i-clock" viewBox="0 0 24 24">
    <circle cx="12" cy="12" r="10"/>
    <polyline points="12 6 12 12 16 14"/>
  </symbol>

  <symbol id="i-zap" viewBox="0 0 24 24">
    <path d="M4 14a1 1 0 0 1-.78-1.63l9.9-10.2a.5.5 0 0 1 .86.46l-1.92 6.02A1 1 0 0 0 13 10h7a1 1 0 0 1 .78 1.63l-9.9 10.2a.5.5 0 0 1-.86-.46l1.92-6.02A1 1 0 0 0 11 14z"/>
  </symbol>

  <symbol id="i-check-circle" viewBox="0 0 24 24">
    <circle cx="12" cy="12" r="10"/>
    <path d="m9 12 2 2 4-4"/>
  </symbol>

  <symbol id="i-minus-circle" viewBox="0 0 24 24">
    <circle cx="12" cy="12" r="10"/>
    <path d="M8 12h8"/>
  </symbol>

  <symbol id="i-x-circle" viewBox="0 0 24 24">
    <circle cx="12" cy="12" r="10"/>
    <path d="m15 9-6 6"/>
    <path d="m9 9 6 6"/>
  </symbol>

  <symbol id="i-sliders-horizontal" viewBox="0 0 24 24">
    <line x1="21" x2="14" y1="4" y2="4"/>
    <line x1="10" x2="3" y1="4" y2="4"/>
    <line x1="21" x2="12" y1="12" y2="12"/>
    <line x1="8" x2="3" y1="12" y2="12"/>
    <line x1="21" x2="16" y1="20" y2="20"/>
    <line x1="12" x2="3" y1="20" y2="20"/>
    <line x1="14" x2="14" y1="2" y2="6"/>
    <line x1="8" x2="8" y1="10" y2="14"/>
    <line x1="16" x2="16" y1="18" y2="22"/>
  </symbol>

  <symbol id="i-monitor" viewBox="0 0 24 24">
    <rect width="20" height="14" x="2" y="3" rx="2"/>
    <line x1="8" x2="16" y1="21" y2="21"/>
    <line x1="12" x2="12" y1="17" y2="21"/>
  </symbol>

  <symbol id="i-list" viewBox="0 0 24 24">
    <path d="M3 12h.01"/>
    <path d="M3 18h.01"/>
    <path d="M3 6h.01"/>
    <path d="M8 12h13"/>
    <path d="M8 18h13"/>
    <path d="M8 6h13"/>
  </symbol>

  <symbol id="i-alert-triangle" viewBox="0 0 24 24">
    <path d="m21.73 18-8-14a2 2 0 0 0-3.48 0l-8 14A2 2 0 0 0 4 21h16a2 2 0 0 0 1.73-3"/>
    <path d="M12 9v4"/>
    <path d="M12 17h.01"/>
  </symbol>

  <symbol id="i-eye" viewBox="0 0 24 24">
    <path d="M2.062 12.348a1 1 0 0 1 0-.696 10.75 10.75 0 0 1 19.876 0 1 1 0 0 1 0 .696 10.75 10.75 0 0 1-19.876 0"/>
    <circle cx="12" cy="12" r="3"/>
  </symbol>

  <symbol id="i-arrow-up" viewBox="0 0 24 24">
    <path d="m5 12 7-7 7 7"/>
    <path d="M12 19V5"/>
  </symbol>

  <symbol id="i-arrow-down" viewBox="0 0 24 24">
    <path d="M12 5v14"/>
    <path d="m19 12-7 7-7-7"/>
  </symbol>

  <symbol id="i-cpu" viewBox="0 0 24 24">
    <rect width="16" height="16" x="4" y="4" rx="2"/>
    <rect width="6" height="6" x="9" y="9" rx="1"/>
    <path d="M15 2v2M15 20v2M2 15h2M2 9h2M20 15h2M20 9h2M9 2v2M9 20v2"/>
  </symbol>

  <symbol id="i-trending-up" viewBox="0 0 24 24">
    <polyline points="22 7 13.5 15.5 8.5 10.5 2 17"/>
    <polyline points="16 7 22 7 22 13"/>
  </symbol>

  <symbol id="i-globe" viewBox="0 0 24 24">
    <circle cx="12" cy="12" r="10"/>
    <path d="M12 2a14.5 14.5 0 0 0 0 20 14.5 14.5 0 0 0 0-20"/>
    <path d="M2 12h20"/>
  </symbol>

  <symbol id="i-smartphone" viewBox="0 0 24 24">
    <rect width="14" height="20" x="5" y="2" rx="2" ry="2"/>
    <path d="M12 18h.01"/>
  </symbol>

  <symbol id="i-tablet" viewBox="0 0 24 24">
    <rect width="16" height="20" x="4" y="2" rx="2" ry="2"/>
    <path d="M12 18h.01"/>
  </symbol>

  <symbol id="i-tv" viewBox="0 0 24 24">
    <path d="M7 21h10"/>
    <rect width="20" height="14" x="2" y="3" rx="2"/>
  </symbol>

  <symbol id="i-rotate-ccw" viewBox="0 0 24 24">
    <path d="M3 12a9 9 0 1 0 9-9 9.75 9.75 0 0 0-6.74 2.74L3 8"/>
    <path d="M3 3v5h5"/>
  </symbol>

  <symbol id="i-search" viewBox="0 0 24 24">
    <circle cx="11" cy="11" r="8"/>
    <path d="m21 21-4.35-4.35"/>
  </symbol>

  <symbol id="i-x" viewBox="0 0 24 24">
    <path d="M18 6 6 18"/>
    <path d="m6 6 12 12"/>
  </symbol>

  <symbol id="i-settings" viewBox="0 0 24 24">
    <path d="M12.22 2h-.44a2 2 0 0 0-2 2v.18a2 2 0 0 1-1 1.73l-.43.25a2 2 0 0 1-2 0l-.15-.08a2 2 0 0 0-2.73.73l-.22.38a2 2 0 0 0 .73 2.73l.15.1a2 2 0 0 1 1 1.72v.51a2 2 0 0 1-1 1.74l-.15.09a2 2 0 0 0-.73 2.73l.22.38a2 2 0 0 0 2.73.73l.15-.08a2 2 0 0 1 2 0l.43.25a2 2 0 0 1 1 1.73V20a2 2 0 0 0 2 2h.44a2 2 0 0 0 2-2v-.18a2 2 0 0 1 1-1.73l.43-.25a2 2 0 0 1 2 0l.15.08a2 2 0 0 0 2.73-.73l.22-.39a2 2 0 0 0-.73-2.73l-.15-.08a2 2 0 0 1-1-1.74v-.5a2 2 0 0 1 1-1.74l.15-.09a2 2 0 0 0 .73-2.73l-.22-.38a2 2 0 0 0-2.73-.73l-.15.08a2 2 0 0 1-2 0l-.43-.25a2 2 0 0 1-1-1.73V4a2 2 0 0 0-2-2z"/>
    <circle cx="12" cy="12" r="3"/>
  </symbol>

  <symbol id="i-eye-off" viewBox="0 0 24 24">
    <path d="M10.733 5.076a10.744 10.744 0 0 1 11.205 6.575 1 1 0 0 1 0 .696 10.747 10.747 0 0 1-1.444 2.49"/>
    <path d="M14.084 14.158a3 3 0 0 1-4.242-4.242"/>
    <path d="M17.479 17.499a10.75 10.75 0 0 1-15.417-5.151 1 1 0 0 1 0-.696 10.75 10.75 0 0 1 4.446-5.143"/>
    <path d="m2 2 20 20"/>
  </symbol>

  <symbol id="i-info" viewBox="0 0 24 24">
    <circle cx="12" cy="12" r="10"/>
    <path d="M12 16v-4"/>
    <path d="M12 8h.01"/>
  </symbol>

  <symbol id="i-volume-2" viewBox="0 0 24 24">
    <polygon points="11 5 6 9 2 9 2 15 6 15 11 19 11 5"/>
    <path d="M15.54 8.46a5 5 0 0 1 0 7.07"/>
    <path d="M19.07 4.93a10 10 0 0 1 0 14.14"/>
  </symbol>
</svg>
